<svg xmlns="http://www.w3.org/2000/svg" xmlns:xlink="http://www.w3.org/1999/xlink" width="18.308" height="26" viewBox="0 0 18.308 26">
  <defs>
    <clipPath id="clip-path">
      <rect width="18.308" height="26" fill="none"/>
    </clipPath>
  </defs>
  <g id="Icon_Devices" clip-path="url(#clip-path)">
    <path id="Path_39" data-name="Path 39" d="M74.641,152.4v9.124l-2.441.488.6,2.975,1.221.954h.778l1.663.229.778-.305,1.663-.572.587-1.564V162.47l-.954-.343-1.449-.267v-1.3l.114-2.937-.343-3.28.381-1.526-.038-.42Z" transform="translate(-66.693 -140.773)" fill="#3cb769"/>
    <g id="Group_211" data-name="Group 211">
      <path id="Path_36" data-name="Path 36" d="M40.61,96a.61.61,0,1,0,.61.61.612.612,0,0,0-.61-.61Zm0,0" transform="translate(-36.95 -88.675)"/>
      <path id="Path_37" data-name="Path 37" d="M52.026,35.517a4.873,4.873,0,0,1,4.15-2.3.61.61,0,1,0,0-1.221A6.05,6.05,0,0,0,51,34.876a.607.607,0,0,0,.2.839.6.6,0,0,0,.832-.2Zm0,0" transform="translate(-47.023 -29.558)"/>
      <path id="Path_38" data-name="Path 38" d="M4.9,22.932a3.051,3.051,0,0,0,3.051,3.051h2.441a3.051,3.051,0,0,0,3.051-3.051V20.72a7.159,7.159,0,0,1,2.182-5.1A9.145,9.145,0,0,0,9.011-.015,9.262,9.262,0,0,0,.025,8.8a9.064,9.064,0,0,0,2.609,6.736,7.45,7.45,0,0,1,2.266,5.2Zm7.324,0a1.836,1.836,0,0,1-1.831,1.831H7.951A1.836,1.836,0,0,1,6.12,22.932v-.976h6.1Zm-3.662-2.2V12.191H9.782v8.544ZM3.5,14.678A7.834,7.834,0,0,1,1.245,8.842,8.025,8.025,0,0,1,9.034,1.205a7.925,7.925,0,0,1,5.729,13.549,8.374,8.374,0,0,0-2.54,5.973v.015H11V12.191h.61A1.831,1.831,0,1,0,9.782,10.36a1.8,1.8,0,0,0,.107.61H8.462a1.8,1.8,0,0,0,.107-.61,1.831,1.831,0,1,0-1.831,1.831h.61v8.544H6.12v-.008A8.679,8.679,0,0,0,3.5,14.678ZM11,10.36a.61.61,0,1,1,.61.61.612.612,0,0,1-.61-.61Zm-3.662,0a.61.61,0,1,1-.61-.61.612.612,0,0,1,.61.61Zm0,0" transform="translate(-0.019 0.016)"/>
    </g>
  </g>
</svg>
