<svg xmlns="http://www.w3.org/2000/svg" xmlns:xlink="http://www.w3.org/1999/xlink" width="27.979" height="26" viewBox="0 0 27.979 26">
  <defs>
    <clipPath id="clip-path">
      <rect width="27.979" height="26" fill="none"/>
    </clipPath>
    <clipPath id="clip-path-2">
      <rect id="Rectangle_84" data-name="Rectangle 84" width="27.979" height="26"/>
    </clipPath>
  </defs>
  <g id="Icon_Gadgets" clip-path="url(#clip-path)">
    <path id="Path_31" data-name="Path 31" d="M271.32,226,269,234.51l3.46,1.317.908-.73,2.32.73,2.184-6.483-2.1-1.481-.86-1.044Z" transform="translate(-250.643 -210.577)" fill="#3cb769"/>
    <path id="Path_32" data-name="Path 32" d="M17.551,226l2.32,8.51-3.46,1.317-.908-.73-2.32.73L11,229.344l2.1-1.481.86-1.044Z" transform="translate(-10.249 -210.577)" fill="#3cb769"/>
    <g id="Group_209" data-name="Group 209">
      <path id="Path_33" data-name="Path 33" d="M312.427,266.959a.548.548,0,1,0,.382.676.549.549,0,0,0-.382-.676Zm0,0" transform="translate(-290.467 -248.725)"/>
      <g id="Group_208" data-name="Group 208">
        <g id="Group_206" data-name="Group 206" clip-path="url(#clip-path-2)">
          <path id="Path_34" data-name="Path 34" d="M82.434,268.017a.537.537,0,0,0,.382-.669.547.547,0,0,0-1.058.28.563.563,0,0,0,.676.389Zm0,0" transform="translate(-76.163 -248.725)"/>
        </g>
        <g id="Group_207" data-name="Group 207" clip-path="url(#clip-path-2)">
          <path id="Path_35" data-name="Path 35" d="M27.333,18.111a13.278,13.278,0,0,0,.614-3.876,13.361,13.361,0,0,0-4.163-9.649A14.153,14.153,0,0,0,13.985.6,13.909,13.909,0,0,0,.023,14.235a13.054,13.054,0,0,0,.614,3.876,1.656,1.656,0,0,0-.573,1.713l1.413,5.268a1.643,1.643,0,0,0,2.006,1.16l1.672-.45a1.633,1.633,0,0,0,1.774.655l2.109-.566a1.64,1.64,0,0,0,1.16-2.006L8.218,16.507a1.64,1.64,0,0,0-2.006-1.16L4.1,15.92a1.728,1.728,0,0,0-.594.293,9.639,9.639,0,0,1-.2-1.508,1.593,1.593,0,0,0,1.119-1.378,9.638,9.638,0,0,1,19.108,0,1.611,1.611,0,0,0,1.119,1.378,9.639,9.639,0,0,1-.2,1.508,1.516,1.516,0,0,0-.594-.293l-2.109-.566a1.644,1.644,0,0,0-2.006,1.16l-1.979,7.377a1.644,1.644,0,0,0,1.16,2.006l2.109.566a1.641,1.641,0,0,0,1.774-.655l1.672.45A1.637,1.637,0,0,0,26.48,25.1l1.413-5.268a1.632,1.632,0,0,0-.56-1.72Zm-22.95-1.14L6.492,16.4a.549.549,0,0,1,.669.389L9.14,24.171a.551.551,0,0,1-.382.669l-.525.143L7.242,21.3a.547.547,0,0,0-1.058.28l.99,3.685-.525.143a.549.549,0,0,1-.669-.389h0L4,17.64a.537.537,0,0,1,.382-.669Zm.4,7.8L3.2,25.194a.549.549,0,0,1-.669-.389L1.114,19.537a.546.546,0,0,1,.348-.655c.014-.007.027-.007.034-.014l1.556-.416c.171.4-.123-.512,1.727,6.319ZM1.128,14.781H2.22A11.053,11.053,0,0,0,2.7,17.422l-1.051.28a12.49,12.49,0,0,1-.519-2.921Zm23.5-1.556a10.728,10.728,0,0,0-21.278,0,.533.533,0,0,1-.532.464H1.128a12.888,12.888,0,0,1,25.713,0H25.156a.538.538,0,0,1-.532-.464Zm2.218,1.556a12.168,12.168,0,0,1-.525,2.921l-1.051-.28a11.053,11.053,0,0,0,.478-2.641ZM22,25.017h0a.546.546,0,0,1-.669.389l-.525-.143.99-3.685a.547.547,0,1,0-1.058-.28l-.99,3.685-.525-.143a.546.546,0,0,1-.389-.669l1.979-7.377a.545.545,0,0,1,.525-.4.52.52,0,0,1,.143.02l2.109.566a.546.546,0,0,1,.389.669Zm4.859-5.48-1.413,5.268a.546.546,0,0,1-.669.389l-1.583-.423c1.849-6.831,1.556-5.917,1.713-6.319,1.658.444,1.563.416,1.6.43a.553.553,0,0,1,.355.655Zm0,0" transform="translate(-0.009 -0.559)"/>
        </g>
      </g>
    </g>
  </g>
</svg>
