<svg xmlns="http://www.w3.org/2000/svg" xmlns:xlink="http://www.w3.org/1999/xlink" width="34" height="22.331" viewBox="0 0 34 22.331">
  <defs>
    <clipPath id="clip-path">
      <rect width="34" height="22.331" fill="none"/>
    </clipPath>
  </defs>
  <g id="Icon_Gaming" clip-path="url(#clip-path)">
    <path id="Path_40" data-name="Path 40" d="M50.95,47.2l-1.683,1.3-.773.9L46.8,50.2l.159,1.45,1.482.794L49.9,54.59l1.292.233,1.249-1.059.551-.953,1.535-.762.318-1.3L53.576,49.6l-.847-.731-.318-1.143-.476-.529Z" transform="translate(-41.848 -42.206)" fill="#00c569"/>
    <path id="Path_41" data-name="Path 41" d="M2.671,22.248a4.141,4.141,0,0,0,2.71-.3A19.9,19.9,0,0,0,10.8,18.1c1.313-1.27,3.769-1.906,6.225-1.906s4.912.635,6.225,1.906a19.9,19.9,0,0,0,5.421,3.854,4.43,4.43,0,0,0,2.71.3A3.165,3.165,0,0,0,33.416,20.3a11.323,11.323,0,0,0,.593-4.828,31.737,31.737,0,0,0-.932-6.141,23.568,23.568,0,0,0-1.906-5.167C28.207-1.044,24.989-.239,21.135.777a27.585,27.585,0,0,1-3.9.762h-.423a27.585,27.585,0,0,1-3.9-.762C9.066-.2,5.847-1.044,2.883,4.207A21.589,21.589,0,0,0,.977,9.374a31.737,31.737,0,0,0-.932,6.141,11.539,11.539,0,0,0,.593,4.828A3.209,3.209,0,0,0,2.671,22.248ZM1.613,15.557A29.211,29.211,0,0,1,2.5,9.713,20.207,20.207,0,0,1,4.281,4.927C6.61.735,9.32,1.412,12.538,2.259a24.842,24.842,0,0,0,4.15.8h.635a24.535,24.535,0,0,0,4.192-.8c3.218-.8,5.929-1.525,8.258,2.668a19.527,19.527,0,0,1,1.779,4.785,32.054,32.054,0,0,1,.889,5.844,9.8,9.8,0,0,1-.466,4.15,1.679,1.679,0,0,1-1.016,1.059,2.924,2.924,0,0,1-1.736-.212,17.27,17.27,0,0,1-4.912-3.515c-1.609-1.609-4.447-2.414-7.284-2.414s-5.675.8-7.326,2.329a17.6,17.6,0,0,1-4.912,3.515,2.627,2.627,0,0,1-1.736.212,1.679,1.679,0,0,1-1.016-1.059A10.014,10.014,0,0,1,1.613,15.557Z" transform="translate(-0.027 -0.028)"/>
    <path id="Path_42" data-name="Path 42" d="M43.687,47.057a2.259,2.259,0,0,0,.72,1.525,2.4,2.4,0,0,0,1.736.72h0a2.5,2.5,0,0,0,1.736-.72h0a2.573,2.573,0,0,0,.72-1.525,2.259,2.259,0,0,0,1.525-.72,2.4,2.4,0,0,0,.72-1.736h0a2.5,2.5,0,0,0-.72-1.736h0a2.573,2.573,0,0,0-1.525-.72,2.41,2.41,0,0,0-.678-1.482l-.042-.042a2.4,2.4,0,0,0-1.736-.72h0a2.5,2.5,0,0,0-1.736.72,2.461,2.461,0,0,0-.72,1.525,2.523,2.523,0,0,0-1.525.678l-.042.042A2.4,2.4,0,0,0,41.4,44.6h0a2.5,2.5,0,0,0,.72,1.736A2.361,2.361,0,0,0,43.687,47.057Zm-.72-2.456a.862.862,0,0,1,.254-.635l.042-.042a1.012,1.012,0,0,1,.593-.212h.593a.8.8,0,0,0,.8-.8v-.593a.868.868,0,0,1,.889-.889h0a.862.862,0,0,1,.635.254l.042.042a1.012,1.012,0,0,1,.212.593v.593a.8.8,0,0,0,.8.8h.593a.862.862,0,0,1,.635.254h0a.862.862,0,0,1,.254.635h0a.868.868,0,0,1-.889.889h-.593a.8.8,0,0,0-.8.8v.551a.862.862,0,0,1-.254.635h0a.862.862,0,0,1-.635.254h0a.868.868,0,0,1-.889-.889v-.593a.8.8,0,0,0-.8-.8h-.593a.868.868,0,0,1-.889-.847Z" transform="translate(-37.02 -35.679)"/>
    <circle id="Ellipse_17" data-name="Ellipse 17" cx="1.482" cy="1.482" r="1.482" transform="translate(22.886 4.433)"/>
    <circle id="Ellipse_18" data-name="Ellipse 18" cx="1.482" cy="1.482" r="1.482" transform="translate(22.886 10.446)"/>
    <circle id="Ellipse_19" data-name="Ellipse 19" cx="1.482" cy="1.482" r="1.482" transform="translate(19.88 7.44)"/>
    <circle id="Ellipse_20" data-name="Ellipse 20" cx="1.482" cy="1.482" r="1.482" transform="translate(25.893 7.44)"/>
  </g>
</svg>
