<svg xmlns="http://www.w3.org/2000/svg" xmlns:xlink="http://www.w3.org/1999/xlink" width="29.927" height="24" viewBox="0 0 29.927 24">
  <defs>
    <clipPath id="clip-path">
      <rect width="29.927" height="24" fill="none"/>
    </clipPath>
    <clipPath id="clip-path-2">
      <rect id="Rectangle_86" data-name="Rectangle 86" width="29.927" height="24"/>
    </clipPath>
  </defs>
  <g id="Icon_Womens_Shoe" data-name="Icon_Womens Shoe" clip-path="url(#clip-path)">
    <path id="Path_43" data-name="Path 43" d="M7.312,120.341l1.354,2.415.439,2.707v5.524l.4,2.89,1.829.256s.22-2.254.22-2.371V128.1l.476-2.3.293-2.085.841-.951-2.707-1.646-2.451-1.171L6.8,119.5Z" transform="translate(-6.361 -110.756)" fill="#3cb769"/>
    <g id="Group_217" data-name="Group 217">
      <g id="Group_216" data-name="Group 216" transform="translate(0)">
        <g id="Group_214" data-name="Group 214" clip-path="url(#clip-path-2)">
          <path id="Path_44" data-name="Path 44" d="M346.185,280.271a.585.585,0,1,0-.585-.585.587.587,0,0,0,.585.585Zm0,0" transform="translate(-320.371 -258.678)"/>
        </g>
        <g id="Group_215" data-name="Group 215" clip-path="url(#clip-path-2)">
          <path id="Path_45" data-name="Path 45" d="M.169,9.841A6.423,6.423,0,0,0,.85,11.7a11.517,11.517,0,0,1,1.522,5.532v7.229a.587.587,0,0,0,.585.585H5.3a.587.587,0,0,0,.585-.585V17.927a8.939,8.939,0,0,1,.878-3.834L6.813,14a23.386,23.386,0,0,1,6.439,8.539,4.133,4.133,0,0,0,3.761,2.5H21.8a35.93,35.93,0,0,0,5.48-.278c.673-.117,2.715-.468,2.715-2.063a5.563,5.563,0,0,0-1.9-3.337,8.685,8.685,0,0,0-4.632-2.4.586.586,0,0,0-.476.146,4.42,4.42,0,0,1-2.707.907,4.1,4.1,0,0,1-3.454-1.859.408.408,0,0,0-.037-.059l-3.907-5.576A45.029,45.029,0,0,0,4.3,1.332a.574.574,0,0,0-.732,0A9.693,9.693,0,0,0,1.3,3.922a8.524,8.524,0,0,0-1.134,5.9v.015Zm4.544,8.085v5.949H3.543V17.232c0-.176-.007-.366-.015-.563a13.57,13.57,0,0,0-1.837-5.9,23.057,23.057,0,0,1,4.2,2.517,9.545,9.545,0,0,0-1.178,4.646ZM2.313,4.515A8.414,8.414,0,0,1,3.945,2.546,43.913,43.913,0,0,1,11.928,11.2l3.885,5.546a5.281,5.281,0,0,0,4.471,2.451,5.85,5.85,0,0,0,3.263-1.017,7.634,7.634,0,0,1,3.739,2.034,4.627,4.627,0,0,1,1.551,2.5c0,.5-.944.768-1.741.907a34.187,34.187,0,0,1-5.283.263H17.028a2.964,2.964,0,0,1-2.693-1.793A24.579,24.579,0,0,0,1.274,9.3,7.357,7.357,0,0,1,2.313,4.515Zm0,0" transform="translate(-0.089 -1.112)"/>
        </g>
      </g>
      <path id="Path_46" data-name="Path 46" d="M224.585,280.271h6.556a.585.585,0,1,0,0-1.171h-6.556a.585.585,0,1,0,0,1.171Zm0,0" transform="translate(-207.668 -258.678)"/>
    </g>
  </g>
</svg>
